<svg width="839" height="173" viewBox="0 0 839 173" fill="none" xmlns="http://www.w3.org/2000/svg">
<path d="M178.31 172.17V0.76001H212.49V172.17H178.31ZM226.32 0.51001H263.27L297.95 83.45L332.38 0.51001H369.58L297.95 172.17L226.32 0.51001ZM516.88 48.01C516.88 72.89 497.53 93.25 473.15 95.26H420.12V172.17H385.94V61.08H469.38C473.15 61.08 476.42 59.82 478.68 57.31C481.19 55.05 482.7 51.53 482.7 48.01C482.7 40.72 476.67 34.69 469.38 34.69H385.94V0.51001L469.38 0.76001C482.45 0.76001 494.26 6.03999 502.81 14.58C511.61 23.13 516.89 34.94 516.89 48.01H516.88ZM104.67 172.17H52.78V137.99H105.31C109.08 137.99 114.61 137.68 114.61 126.09C114.61 117.67 114.22 51.53 114.22 48.01C114.22 40.72 108.19 34.69 100.9 34.69H52.78V0.51001L100.9 0.76001C135.74 0.76001 150.97 4.34999 150.97 37.62C150.97 65.24 151.16 84.94 151.16 135.69C151.16 176.25 114.57 172.18 104.68 172.18L104.67 172.17ZM525.69 86.46C525.69 38.96 564.4 0 612.15 0C659.9 0 698.61 38.96 698.61 86.46C698.61 133.96 659.9 172.92 612.15 172.92C564.4 172.92 525.69 134.21 525.69 86.46ZM559.87 86.46C559.87 115.36 583.25 138.74 612.15 138.74C641.05 138.74 664.43 115.37 664.43 86.46C664.43 57.55 641.06 34.18 612.15 34.18C583.24 34.18 559.87 57.55 559.87 86.46ZM830.07 34.69H752.66C747.13 34.69 743.86 39.21 743.86 43.74C743.86 46.51 745.12 49.52 748.38 51.28L815.49 88.98C829.57 96.77 838.36 111.6 838.36 127.69C838.36 152.07 818.25 171.93 793.87 171.93H707.41V138H789.6C796.64 138 800.91 132.22 800.91 126.44C800.91 122.67 799.15 118.9 795.13 116.64L729.03 79.69C715.71 72.15 707.41 58.07 707.41 42.74C707.41 19.37 726.26 0.519989 749.64 0.519989H830.07V34.7V34.69ZM0.349976 172.17V0.76001H34.53V172.17H0.349976ZM611.69 120.62C592.86 120.62 577.53 105.3 577.53 86.46C577.53 67.62 592.85 52.3 611.69 52.3C630.53 52.3 645.85 67.62 645.85 86.46C645.85 105.3 630.53 120.62 611.69 120.62ZM611.69 72.18C603.81 72.18 597.4 78.59 597.4 86.47C597.4 94.35 603.81 100.76 611.69 100.76C619.57 100.76 625.98 94.35 625.98 86.47C625.98 78.59 619.57 72.18 611.69 72.18Z" fill="white"/>
<path d="M611.69 120.621C592.86 120.621 577.53 105.301 577.53 86.4608C577.53 67.6208 592.85 52.3008 611.69 52.3008C630.53 52.3008 645.85 67.6208 645.85 86.4608C645.85 105.301 630.53 120.621 611.69 120.621ZM611.69 72.1808C603.81 72.1808 597.4 78.5908 597.4 86.4708C597.4 94.3508 603.81 100.761 611.69 100.761C619.57 100.761 625.98 94.3508 625.98 86.4708C625.98 78.5908 619.57 72.1808 611.69 72.1808Z" fill="#FC4100"/>
</svg>
