<svg width="839" height="174" viewBox="0 0 839 174" fill="none" xmlns="http://www.w3.org/2000/svg">
<path d="M178.31 172.33V0.920166H212.49V172.33H178.31ZM226.32 0.670166H263.27L297.95 83.6101L332.38 0.670166H369.58L297.95 172.33L226.32 0.670166ZM516.88 48.1702C516.88 73.0502 497.53 93.4102 473.15 95.4202H420.12V172.33H385.94V61.2401H469.38C473.15 61.2401 476.42 59.9802 478.68 57.4702C481.19 55.2102 482.7 51.6902 482.7 48.1702C482.7 40.8802 476.67 34.8502 469.38 34.8502H385.94V0.670166L469.38 0.920166C482.45 0.920166 494.26 6.20014 502.81 14.7401C511.61 23.2901 516.89 35.1002 516.89 48.1702H516.88ZM104.67 172.33H52.78V138.15H105.31C109.08 138.15 114.61 137.84 114.61 126.25C114.61 117.83 114.22 51.6902 114.22 48.1702C114.22 40.8802 108.19 34.8502 100.9 34.8502H52.78V0.670166L100.9 0.920166C135.74 0.920166 150.97 4.51015 150.97 37.7802C150.97 65.4002 151.16 85.1002 151.16 135.85C151.16 176.41 114.57 172.34 104.68 172.34L104.67 172.33ZM525.69 86.6201C525.69 39.1201 564.4 0.160156 612.15 0.160156C659.9 0.160156 698.61 39.1201 698.61 86.6201C698.61 134.12 659.9 173.08 612.15 173.08C564.4 173.08 525.69 134.37 525.69 86.6201ZM559.87 86.6201C559.87 115.52 583.25 138.9 612.15 138.9C641.05 138.9 664.43 115.53 664.43 86.6201C664.43 57.7101 641.06 34.3401 612.15 34.3401C583.24 34.3401 559.87 57.7101 559.87 86.6201ZM830.07 34.8502H752.66C747.13 34.8502 743.86 39.3701 743.86 43.9001C743.86 46.6701 745.12 49.6802 748.38 51.4402L815.49 89.1402C829.57 96.9302 838.36 111.76 838.36 127.85C838.36 152.23 818.25 172.09 793.87 172.09H707.41V138.16H789.6C796.64 138.16 800.91 132.38 800.91 126.6C800.91 122.83 799.15 119.06 795.13 116.8L729.03 79.8502C715.71 72.3102 707.41 58.2301 707.41 42.9001C707.41 19.5301 726.26 0.680145 749.64 0.680145H830.07V34.8601V34.8502ZM0.349976 172.33V0.920166H34.53V172.33H0.349976ZM611.69 120.78C592.86 120.78 577.53 105.46 577.53 86.6201C577.53 67.7801 592.85 52.4601 611.69 52.4601C630.53 52.4601 645.85 67.7801 645.85 86.6201C645.85 105.46 630.53 120.78 611.69 120.78ZM611.69 72.3401C603.81 72.3401 597.4 78.7502 597.4 86.6302C597.4 94.5102 603.81 100.92 611.69 100.92C619.57 100.92 625.98 94.5102 625.98 86.6302C625.98 78.7502 619.57 72.3401 611.69 72.3401Z" fill="#2C4E80"/>
<path d="M611.69 120.781C592.86 120.781 577.53 105.461 577.53 86.6209C577.53 67.7809 592.85 52.4609 611.69 52.4609C630.53 52.4609 645.85 67.7809 645.85 86.6209C645.85 105.461 630.53 120.781 611.69 120.781ZM611.69 72.3409C603.81 72.3409 597.4 78.751 597.4 86.631C597.4 94.511 603.81 100.921 611.69 100.921C619.57 100.921 625.98 94.511 625.98 86.631C625.98 78.751 619.57 72.3409 611.69 72.3409Z" fill="#FC4100"/>
</svg>
