<svg width="329" height="139" viewBox="0 0 329 139" fill="none" xmlns="http://www.w3.org/2000/svg">
<rect x="2.5" y="2.5" width="324" height="134" rx="27.5" fill="#EDEDED" stroke="#1C3252" stroke-width="5" stroke-dasharray="10 10"/>
<path d="M66.8711 60.7923V56.8164H87.7603V60.7923H79.668V82.9982H74.9634V60.7923H66.8711Z" fill="#1C3252"/>
<path d="M91.7873 82.9982V56.8164H108.816V60.7923H96.5302V67.9002H107.934V71.8761H96.5302V79.0224H108.918V82.9982H91.7873Z" fill="#1C3252"/>
<path d="M117.618 56.8164L123.383 66.4045H123.588L129.379 56.8164H134.787L126.72 69.9073L134.914 82.9982H129.417L123.588 73.4741H123.383L117.554 82.9982H112.082L120.353 69.9073L112.184 56.8164H117.618Z" fill="#1C3252"/>
<path d="M137.359 60.7923V56.8164H158.249V60.7923H150.156V82.9982H145.452V60.7923H137.359Z" fill="#1C3252"/>
<path d="M171.205 82.9982V56.8164H175.948V67.9002H188.08V56.8164H192.836V82.9982H188.08V71.8761H175.948V82.9982H171.205Z" fill="#1C3252"/>
<path d="M197.994 82.9982V56.8164H215.023V60.7923H202.737V67.9002H214.141V71.8761H202.737V79.0224H215.125V82.9982H197.994Z" fill="#1C3252"/>
<path d="M219.862 82.9982V56.8164H229.68C231.691 56.8164 233.379 57.1658 234.742 57.8647C236.114 58.5636 237.15 59.5437 237.849 60.805C238.556 62.0579 238.91 63.5195 238.91 65.19C238.91 66.869 238.552 68.3263 237.836 69.5621C237.129 70.7894 236.085 71.7397 234.704 72.413C233.323 73.0778 231.627 73.4102 229.616 73.4102H222.623V69.4727H228.977C230.153 69.4727 231.116 69.3107 231.866 68.9869C232.616 68.6545 233.17 68.1729 233.528 67.5423C233.894 66.9031 234.077 66.119 234.077 65.19C234.077 64.261 233.894 63.4684 233.528 62.8121C233.161 62.1474 232.603 61.6445 231.853 61.3036C231.103 60.9542 230.136 60.7795 228.951 60.7795H224.604V82.9982H219.862ZM233.387 71.1346L239.869 82.9982H234.576L228.21 71.1346H233.387Z" fill="#1C3252"/>
<path d="M243.276 82.9982V56.8164H260.304V60.7923H248.018V67.9002H259.422V71.8761H248.018V79.0224H260.406V82.9982H243.276Z" fill="#1C3252"/>
</svg>
