<svg width="216" height="191" viewBox="0 0 216 191" fill="none" xmlns="http://www.w3.org/2000/svg">
<path d="M16.1997 188.5C14.9616 188.5 13.7877 188.342 12.6877 188.053L12.0514 190.47C9.24713 189.732 6.80722 188.264 4.88062 186.322L6.65513 184.561C4.98516 182.878 3.76955 180.773 3.14721 178.485L0.734881 179.142C0.016891 176.502 -0.0351199 173.655 0.72782 170.857L3.13974 171.515C3.43901 170.418 3.88928 169.322 4.50831 168.25L7.05827 163.833L4.89321 162.583L9.99313 153.75L12.1582 155L17.2581 146.167L15.0931 144.917L20.193 136.083L22.3581 137.333L27.458 128.5L25.2929 127.25L30.3928 118.417L32.5579 119.667L37.6578 110.833L35.4928 109.583L40.5927 100.75L42.7578 102L47.8577 93.1667L45.6926 91.9167L50.7925 83.0833L52.9576 84.3333L58.0575 75.5L55.8925 74.25L60.9924 65.4167L63.1575 66.6667L68.2574 57.8333L66.0923 56.5833L71.1923 47.75L73.3573 49L78.4572 40.1667L76.2922 38.9167L81.3921 30.0833L83.5572 31.3333L88.6571 22.5L86.492 21.25L91.592 12.4167L93.757 13.6667L96.307 9.25C96.926 8.17782 97.6497 7.2401 98.4504 6.43222L96.6748 4.67232C98.7161 2.61281 101.208 1.23416 103.853 0.536363L104.49 2.95363C106.783 2.34879 109.214 2.34879 111.506 2.95363L112.144 0.536359C114.789 1.23415 117.281 2.6128 119.322 4.67231L117.546 6.43221C118.347 7.24009 119.071 8.17782 119.69 9.25L122.24 13.6667L124.405 12.4167L129.505 21.25L127.34 22.5L132.44 31.3333L134.605 30.0833L139.704 38.9167L137.539 40.1667L142.639 49L144.804 47.75L149.904 56.5833L147.739 57.8333L152.839 66.6667L155.004 65.4167L160.104 74.25L157.939 75.5L163.039 84.3333L165.204 83.0833L170.304 91.9166L168.139 93.1666L173.239 102L175.404 100.75L180.504 109.583L178.339 110.833L183.439 119.667L185.604 118.417L190.704 127.25L188.539 128.5L193.639 137.333L195.804 136.083L200.904 144.917L198.739 146.167L203.838 155L206.004 153.75L211.103 162.583L208.938 163.833L211.488 168.25C212.107 169.322 212.558 170.418 212.857 171.515L215.269 170.857C216.032 173.655 215.98 176.502 215.262 179.141L212.849 178.485C212.227 180.773 211.012 182.878 209.342 184.561L211.116 186.322C209.189 188.264 206.75 189.732 203.945 190.47L203.309 188.053C202.209 188.342 201.035 188.5 199.797 188.5H194.697V191H184.497V188.5H174.297V191H164.098V188.5H153.898V191H143.698V188.5H133.498V191H123.298V188.5H113.098V191H102.898V188.5H92.6986V191H82.4987V188.5H72.2989V191H62.099V188.5H51.8992V191H41.6993V188.5H31.4994V191H21.2996V188.5H16.1997Z" fill="#F3F8FF" stroke="#1C3252" stroke-width="5" stroke-dasharray="10 10"/>
</svg>
